<svg xmlns="http://www.w3.org/2000/svg" width="1024" height="1024" viewBox="0 0 1024 1024" version="1.1">
	<path d="M 255.678 70.045 C 224.112 73.353, 198.129 80.485, 172.500 92.877 C 147.470 104.980, 130.883 116.405, 108 137.307 C 70.938 171.160, 43.851 219.464, 34.151 269 C 29.923 290.592, 29.519 295.168, 29.556 321 C 29.590 344.285, 29.834 347.881, 32.366 362.394 C 38.361 396.757, 51.585 430.855, 69.443 458 C 89.650 488.716, 116.820 515.845, 147.556 535.996 C 164.995 547.429, 200.894 564.098, 210.390 565.173 C 213.262 565.498, 213.303 565.424, 217.524 552.500 C 222.186 538.223, 228.674 521.550, 232.524 513.952 C 233.886 511.265, 235 508.684, 235 508.216 C 235 507.748, 232.412 506.565, 229.250 505.586 C 199.485 496.378, 171.227 479.939, 150.164 459.579 C 107.272 418.118, 86.080 360.598, 92.053 301.856 C 99.961 224.090, 158.501 155.383, 232.820 136.642 C 250.990 132.060, 264.300 130.714, 285.500 131.317 C 300.498 131.744, 306.922 132.382, 316 134.347 C 378.492 147.876, 425.268 185.384, 455 245.804 C 458.025 251.951, 460.725 256.984, 461 256.987 C 461.275 256.990, 463.025 254.044, 464.888 250.441 C 470.149 240.266, 480.760 222.720, 489.860 209.148 C 494.414 202.354, 498.395 196.135, 498.705 195.327 C 499.966 192.040, 479.106 164.365, 462 146.632 C 421.614 104.766, 375.139 80.510, 319 71.998 C 303.391 69.632, 269.575 68.589, 255.678 70.045 M 716.072 70.040 C 637.161 77.652, 571.245 116.506, 518.207 186.670 C 488.715 225.687, 462.435 275.085, 448.952 316.849 C 440.016 344.533, 429.656 390.634, 431.654 393.827 C 433.168 396.244, 442.128 400.562, 452.500 403.872 C 468.391 408.942, 468.371 408.945, 461.388 402.620 C 454.071 395.990, 452.536 392.784, 453.271 385.662 C 454.252 376.162, 469.110 346.200, 483.851 324 C 504.684 292.623, 528.021 269.439, 553.897 254.411 C 561.842 249.797, 564.283 247.826, 566.076 244.571 C 574.103 230.002, 587.472 211.163, 600.544 196 C 627.683 164.522, 666.291 142.132, 707.500 133.975 C 728.024 129.912, 758.722 130.177, 780.285 134.603 C 821.193 143, 860.183 165.782, 885.215 195.914 C 930.559 250.497, 944.198 315.957, 923.499 379.659 C 918.982 393.562, 908.070 415.722, 899.450 428.500 C 878.705 459.252, 854.212 480.627, 821.500 496.526 C 804.603 504.739, 793.970 508.378, 775.543 512.254 C 761.163 515.279, 759.464 515.420, 737 515.459 C 716.042 515.496, 712.256 515.243, 702 513.121 C 673.861 507.299, 649.257 497.334, 630.646 484.222 C 615.732 473.714, 593.969 452.696, 583 438.207 C 578.183 431.844, 576.879 430.755, 572.500 429.441 C 563.428 426.718, 543.784 424.780, 541.234 426.356 C 540.658 426.711, 539.484 429.066, 538.624 431.589 C 537.765 434.111, 535.504 438.343, 533.601 440.992 C 530.504 445.303, 530.290 446.003, 531.561 447.655 C 533.865 450.646, 540.836 473.379, 542.496 483.318 C 543.340 488.368, 544.249 493.480, 544.516 494.678 C 545.122 497.392, 575.142 523.870, 588 533.029 C 630.041 562.980, 670.578 577.567, 721.672 581.131 C 779.655 585.176, 840.560 565.945, 890.955 527.679 C 909.020 513.963, 935.173 486.863, 948.254 468.307 C 964.415 445.382, 977.526 418.097, 985.504 390.787 C 1007.761 314.596, 989.819 225.912, 939.541 163.614 C 898.332 112.552, 840.767 80.229, 775.460 71.482 C 761.085 69.556, 729.128 68.780, 716.072 70.040 M 551.377 269.405 C 543.456 273.093, 532.800 280.467, 525.307 287.445 L 518.500 293.784 520.972 297.142 C 539.500 322.309, 558.491 362.481, 559.753 379.173 C 560.343 386.971, 558.572 390.795, 551.942 396.046 C 549.774 397.763, 548 399.519, 548 399.948 C 548 400.730, 567.010 396.151, 572.317 394.092 C 574.314 393.317, 574.984 392.489, 574.619 391.249 C 572.522 384.130, 565.360 330.568, 560.846 288.250 C 559.501 275.634, 558.158 267.004, 557.540 267.010 C 556.968 267.015, 554.194 268.093, 551.377 269.405 M 475.497 275.137 C 469.366 280.519, 461 300.472, 461 309.710 C 461 311.520, 461.396 313, 461.879 313 C 462.363 313, 466.703 309.512, 471.525 305.250 C 476.346 300.988, 481.586 296.447, 483.169 295.159 C 487.927 291.289, 493 283.948, 493 280.933 C 493 279.402, 491.837 276.772, 490.411 275.077 C 488.246 272.504, 487.105 272, 483.446 272 C 479.967 272, 478.337 272.643, 475.497 275.137 M 506.556 308.241 C 501.297 314.234, 485.269 337.495, 482.261 343.500 C 480.165 347.684, 479.579 349.927, 473.441 377.310 L 469.673 394.120 471.419 399.661 C 474.207 408.506, 471.740 414, 464.980 414 C 461.391 414, 461.095 414.286, 455.909 422.750 C 439.889 448.897, 416.448 472.525, 390.424 488.758 C 380.216 495.126, 373.222 498.592, 359.907 503.884 C 347.115 508.968, 344.639 511.258, 335.456 526.500 C 325.352 543.272, 316.288 563.092, 311.505 578.878 L 310.784 581.256 317.642 580.547 C 347.040 577.507, 384.787 564.987, 413.500 548.754 C 436.047 536.007, 457.062 519.822, 475.043 501.355 C 494.569 481.300, 506.224 465.173, 517.936 442 C 531.531 415.102, 543.140 379.519, 543.383 364 C 543.493 356.978, 543.202 355.894, 538.823 347 C 533.193 335.564, 526.597 324.684, 517.752 312.241 L 511.171 302.982 506.556 308.241 M 577.018 342.750 C 577.052 347.860, 579.911 365.757, 582.463 376.840 C 585.954 391.996, 585.859 396.099, 581.945 399.393 C 578.493 402.297, 564.638 406.897, 549.307 410.229 C 543.638 411.461, 539 412.761, 539 413.118 C 539 413.475, 542.038 414.084, 545.750 414.471 C 589.032 418.986, 638.806 442.166, 677.738 475.938 L 685.975 483.084 691.391 478.995 C 698.487 473.637, 702.940 472.850, 706.427 476.336 C 708.003 477.912, 709 480.028, 709 481.798 C 709 485.385, 705.711 495.114, 703.033 499.447 L 701.028 502.692 703.434 503.788 C 704.758 504.391, 712.391 505.413, 720.398 506.059 C 737.036 507.402, 753.328 506.382, 769.041 503.013 C 784.615 499.674, 788.514 498.398, 788.373 496.688 C 788.127 493.690, 775.394 473.613, 764.563 459.145 C 752.041 442.418, 725.548 415.087, 710 402.857 C 675.697 375.873, 640.431 357.133, 604 346.526 C 593.738 343.539, 579.334 340, 577.435 340 C 577.196 340, 577.008 341.238, 577.018 342.750 M 416.500 354.433 C 386.711 364.961, 362.017 378.738, 334.357 400.262 C 284.920 438.731, 244.176 498.131, 226.945 556.855 C 206.563 626.321, 210.332 696.365, 238.105 764.208 C 264.277 828.140, 315.918 883.380, 381.569 917.669 C 411.143 933.115, 442.482 943.305, 477 948.698 C 493.355 951.254, 549.239 951.305, 565.749 948.779 C 611.795 941.736, 654.264 924.927, 693.500 898.215 C 727.582 875.013, 759.412 842.017, 781.491 807 C 789.645 794.069, 803.658 765.874, 808.492 752.673 C 816.546 730.679, 823.679 700.850, 826.110 679 C 827.930 662.641, 827.662 627.679, 825.580 610.019 C 823.830 595.166, 821.239 578.905, 820.505 578.172 C 820.279 577.945, 814.454 579.374, 807.561 581.346 C 792.746 585.585, 773.778 589.668, 758.500 591.907 L 747.500 593.518 747.558 597.009 C 747.590 598.929, 748.183 604.550, 748.875 609.500 C 750.538 621.400, 751.420 656.624, 750.282 665.676 L 749.379 672.852 755.940 674.489 C 763.962 676.491, 766.553 678.084, 767.423 681.548 C 768.744 686.812, 764.176 690.693, 754 692.953 C 745.354 694.873, 745 695.030, 745 696.934 C 745 701.097, 734.373 729.549, 727.980 742.500 C 712.343 774.178, 689.457 802.784, 662.500 824.345 C 653.120 831.848, 642.333 839.389, 639.750 840.250 C 639.073 840.476, 639.881 842.229, 641.742 844.565 C 645.935 849.832, 646.697 853.282, 644.435 856.757 C 643.454 858.266, 641.941 860.048, 641.075 860.718 C 638.582 862.646, 633.571 862.200, 630.203 859.750 C 628.501 858.513, 625.144 856.074, 622.741 854.330 L 618.373 851.161 607.025 855.709 C 580.656 866.277, 540.144 873.007, 511.596 871.563 C 490.488 870.495, 474.644 868.088, 455.103 862.979 C 448.835 861.341, 443.560 860, 443.382 860 C 443.204 860, 441.893 862.464, 440.468 865.475 C 437.011 872.783, 433.698 875.350, 428.603 874.671 C 421.985 873.788, 420.961 871.888, 420.294 859.250 L 419.710 848.177 413.605 845.579 C 410.247 844.151, 402.682 839.949, 396.794 836.241 C 357.181 811.298, 326.298 773.692, 308.519 728.750 C 304.399 718.333, 304.046 718.042, 298.056 720.130 C 291.353 722.467, 282.958 717.287, 284.365 711.684 C 284.686 710.402, 287.697 707.149, 291.056 704.455 C 296.691 699.935, 297.111 699.325, 296.502 696.529 C 288.491 659.759, 287.903 629.428, 294.578 597.216 C 299.251 574.662, 309.268 549.637, 321.849 529.085 C 324.682 524.457, 327 520.377, 327 520.020 C 327 519.663, 325.445 518.629, 323.544 517.722 C 318.628 515.378, 312 509.117, 312 506.818 C 312 500.315, 317.182 498.493, 333.037 499.421 L 344.744 500.105 349.854 493.683 C 355.892 486.096, 370.436 472.069, 380.985 463.660 C 392.946 454.125, 407.814 444.732, 423.734 436.653 C 438.412 429.204, 441.053 427.193, 447.919 418.238 L 451.187 413.976 447.626 412.488 C 445.667 411.670, 443.427 411, 442.648 411 C 439.330 411, 425.448 403.036, 423.750 400.158 C 421.032 395.551, 421.200 393.664, 427.084 362.704 C 428.212 356.765, 428.993 351.521, 428.818 351.050 C 428.643 350.578, 423.100 352.101, 416.500 354.433 M 516.843 462.250 C 512.231 471.423, 512.175 471.657, 510.067 490.367 C 506.831 519.082, 501.681 541.864, 495.834 553.324 L 493.881 557.153 501.191 564.827 C 512.501 576.700, 518.381 589.586, 521.952 610.324 C 522.977 616.278, 524.071 621.404, 524.383 621.716 C 525.871 623.204, 532.885 602.597, 536.709 585.500 C 539.233 574.214, 539.396 571.954, 539.446 547.500 C 539.501 521.153, 538.882 513.866, 534.936 494.348 C 531.704 478.364, 523.788 453, 522.031 453 C 521.736 453, 519.402 457.163, 516.843 462.250 M 692.723 491.775 C 689.025 495.501, 686 498.832, 686 499.177 C 686 499.705, 691.448 502, 692.700 502 C 692.921 502, 693.769 500.403, 694.585 498.450 C 697.503 491.468, 699.966 485, 699.709 485 C 699.564 485, 696.421 488.049, 692.723 491.775 M 324 507.480 C 324 508.610, 332.175 512, 334.901 512 C 339.292 512, 339.657 510.172, 335.604 508.479 C 332.321 507.107, 324 506.391, 324 507.480 M 420 556.067 C 413.125 559.863, 407.062 563.122, 406.527 563.309 C 405.992 563.496, 406.934 565.415, 408.621 567.574 C 415.531 576.420, 424.617 591.002, 428.070 598.789 C 430.091 603.348, 431.949 607.283, 432.199 607.532 C 432.448 607.781, 439.368 608.142, 447.576 608.334 C 461.201 608.652, 463.318 608.959, 471.906 611.863 C 480.641 614.816, 488.125 618.400, 500.466 625.539 L 505.432 628.412 502.563 623.456 C 487.594 597.589, 465.916 572.744, 445.500 558.057 C 431.428 547.933, 434.322 548.159, 420 556.067 M 599.327 560.467 C 596.481 561.761, 589.956 563.827, 584.827 565.059 C 579.697 566.291, 574.962 567.433, 574.305 567.597 C 573.648 567.761, 572.841 569.606, 572.511 571.697 C 568.856 594.878, 561.426 612.391, 549.632 625.624 C 546.951 628.631, 544.954 631.287, 545.193 631.527 C 545.984 632.317, 563.892 626.979, 572.194 623.478 C 582.329 619.203, 596.423 610.848, 607.234 602.706 C 615.481 596.494, 638 574.793, 638 573.057 C 638 572.550, 636.987 571.829, 635.750 571.456 C 631.456 570.160, 620.254 565.035, 614.048 561.527 C 610.616 559.587, 607.064 558.026, 606.154 558.058 C 605.244 558.089, 602.172 559.174, 599.327 560.467 M 495.770 583.520 L 491.039 586.991 496.625 595.746 C 499.698 600.560, 502.840 605, 503.607 605.611 C 505.271 606.936, 509.678 606.281, 510.318 604.614 C 511.886 600.526, 504.767 579.968, 501.803 580.025 C 501.086 580.038, 498.371 581.611, 495.770 583.520 M 545.639 581.694 C 545.288 582.046, 545 583.776, 545 585.538 C 545 587.301, 543.886 593.136, 542.524 598.506 C 541.162 603.875, 540.261 608.613, 540.522 609.035 C 540.783 609.458, 542.326 610.266, 543.951 610.833 C 546.394 611.685, 547.343 611.518, 549.437 609.871 C 552.153 607.734, 559 596.263, 559 593.849 C 559 593.047, 556.630 590.144, 553.733 587.398 C 547.620 581.604, 546.511 580.822, 545.639 581.694 M 460.618 619.250 C 460.442 619.938, 459.552 622.708, 458.639 625.407 C 457.726 628.105, 457.097 630.421, 457.240 630.552 C 457.383 630.683, 463.301 631.121, 470.391 631.524 L 483.281 632.257 482.580 629.378 C 481.664 625.620, 478.988 623.630, 470.693 620.537 C 463.051 617.689, 461.081 617.437, 460.618 619.250 M 572.330 633.213 L 560.160 639.315 561.772 641.775 C 563.304 644.113, 563.757 644.210, 570.942 643.738 C 575.099 643.465, 580.298 642.624, 582.496 641.868 C 586.029 640.653, 586.594 640.010, 587.373 636.320 C 588.374 631.575, 587.558 626.973, 585.731 627.055 C 585.054 627.085, 579.024 629.856, 572.330 633.213 M 607 639.531 C 591.813 648.525, 582.213 651.135, 561.500 651.905 L 545.500 652.500 556 659.466 C 569.273 668.272, 588.444 677.819, 602 682.372 C 629.163 691.496, 663.719 694.842, 701.050 691.963 C 713.285 691.019, 755.725 684.608, 756.790 683.543 C 757.441 682.892, 755.207 682.459, 725.500 677.485 C 694.724 672.331, 679.803 668.856, 665.500 663.512 C 648.439 657.137, 625.696 644.645, 617.945 637.391 C 616.540 636.076, 615.190 635.020, 614.945 635.045 C 614.700 635.070, 611.125 637.088, 607 639.531 M 437 641.090 C 404.179 645.311, 371.342 658.263, 335.963 680.941 C 320.151 691.077, 295.375 709.292, 296.769 709.756 C 297.298 709.933, 300.154 709.108, 303.115 707.925 C 332.458 696.196, 361.887 687.972, 385.500 684.901 C 396.566 683.461, 419.501 684.343, 430 686.611 C 442.241 689.255, 441.880 689.356, 445.986 682.125 C 450.434 674.293, 460.788 663.629, 468.275 659.168 C 473.101 656.293, 491.666 647.659, 497.417 645.616 C 507.167 642.151, 457.612 638.439, 437 641.090 M 479 662.815 C 471.116 666.852, 464.984 670.878, 464.400 672.400 C 463.825 673.899, 470.764 686.274, 471.917 685.806 C 472.333 685.638, 476.146 681.771, 480.392 677.213 C 487.757 669.307, 488.097 668.733, 487.806 664.722 C 487.422 659.439, 486.136 659.161, 479 662.815 M 495.781 673.939 C 456.531 711.086, 435.154 765.189, 430.564 839 C 430.273 843.675, 429.745 851.775, 429.391 857 C 429.037 862.225, 428.981 866.275, 429.267 866 C 429.897 865.396, 434.143 854.373, 441.017 835.500 C 447.080 818.856, 460.618 791.064, 468.784 778.500 C 476.917 765.987, 489.531 750.569, 498.451 742.239 L 505.973 735.214 503.803 727.357 C 501.943 720.625, 501.635 716.923, 501.649 701.500 C 501.663 685.367, 501.928 682.541, 504.199 674.250 C 505.592 669.163, 506.394 665, 505.979 665 C 505.565 665, 500.976 669.022, 495.781 673.939 M 547.571 670.472 C 547.137 672.786, 547.443 674.955, 548.486 676.974 C 550.569 681.001, 561.397 692, 563.280 692 C 564.796 692, 571.030 685.682, 572.827 682.323 C 573.695 680.702, 572.856 679.968, 566.160 676.489 C 561.947 674.300, 556.343 671.269, 553.706 669.754 C 551.069 668.239, 548.757 667, 548.567 667 C 548.378 667, 547.929 668.562, 547.571 670.472 M 528.191 678.250 C 530.109 704.636, 539.772 736.136, 553.728 761.500 C 564.984 781.957, 577.623 798.532, 597.462 818.856 C 613.294 835.074, 635 853.948, 635 851.497 C 635 851.146, 633.023 848.078, 630.606 844.679 C 619.250 828.710, 604.503 801.707, 597.467 784 C 589.879 764.902, 584.822 742.856, 583.444 722.868 L 582.780 713.236 573.640 708.652 C 568.613 706.131, 561.397 701.717, 557.604 698.845 C 548.693 692.096, 535.162 678.549, 531.426 672.635 C 529.817 670.088, 528.263 668.003, 527.973 668.002 C 527.683 668.001, 527.781 672.612, 528.191 678.250 M 512.337 681.728 C 511.158 682.521, 509 695.330, 509 701.537 C 509 705.668, 510.963 706.934, 518.586 707.721 C 524.873 708.370, 524.814 708.518, 522.500 698 C 521.714 694.425, 521.048 689.925, 521.020 688 C 520.992 686.075, 520.616 683.944, 520.185 683.265 C 519.204 681.720, 513.895 680.680, 512.337 681.728" stroke="none" fill="black" fill-rule="evenodd"/>
</svg>